<svg width="356" height="356" viewBox="0 0 356 356" fill="none" xmlns="http://www.w3.org/2000/svg">
<mask id="mask0" style="mask-type:alpha" maskUnits="userSpaceOnUse" x="0" y="0" width="356" height="356">
<circle cx="178" cy="178" r="178" fill="#C4C4C4"/>
</mask>
<g mask="url(#mask0)">
<circle cx="178.24" cy="178.237" r="175.5" transform="rotate(180 178.24 178.237)" fill="black" stroke="#D4AF37" stroke-width="5"/>
<mask id="path-3-outside-1" maskUnits="userSpaceOnUse" x="173.204" y="23.2132" width="154.846" height="162.804" fill="black">
<rect fill="white" x="173.204" y="23.2132" width="154.846" height="162.804"/>
<path d="M179.026 28.2393C210.702 28.4051 241.513 38.5948 267.042 57.348C292.572 76.1011 311.509 102.455 321.14 132.632L178.24 178.237L179.026 28.2393Z"/>
</mask>
<g filter="url(#filter0_i)">
<path d="M179.026 28.2393C210.702 28.4051 241.513 38.5948 267.042 57.348C292.572 76.1011 311.509 102.455 321.14 132.632L178.24 178.237L179.026 28.2393Z" fill="url(#paint0_radial)"/>
</g>
<path d="M179.026 28.2393C210.702 28.4051 241.513 38.5948 267.042 57.348C292.572 76.1011 311.509 102.455 321.14 132.632L178.24 178.237L179.026 28.2393Z" stroke="url(#paint1_linear)" stroke-width="10" mask="url(#path-3-outside-1)"/>
<mask id="path-4-outside-2" maskUnits="userSpaceOnUse" x="170.051" y="126.349" width="201.152" height="195.963" fill="black">
<rect fill="white" x="170.051" y="126.349" width="201.152" height="195.963"/>
<path d="M321.139 132.632C330.769 162.81 330.6 195.261 320.653 225.336C310.707 255.411 291.495 281.565 265.771 300.05L178.239 178.237L321.139 132.632Z"/>
</mask>
<g filter="url(#filter1_i)">
<path d="M321.139 132.632C330.769 162.81 330.6 195.261 320.653 225.336C310.707 255.411 291.495 281.565 265.771 300.05L178.239 178.237L321.139 132.632Z" fill="url(#paint2_radial)"/>
</g>
<path d="M321.139 132.632C330.769 162.81 330.6 195.261 320.653 225.336C310.707 255.411 291.495 281.565 265.771 300.05L178.239 178.237L321.139 132.632Z" stroke="url(#paint3_linear)" stroke-width="10" mask="url(#path-4-outside-2)"/>
<mask id="path-5-outside-3" maskUnits="userSpaceOnUse" x="53.1549" y="169.634" width="219.594" height="221.423" fill="black">
<rect fill="white" x="53.1549" y="169.634" width="219.594" height="221.423"/>
<path d="M265.771 300.049C240.047 318.534 209.131 328.4 177.455 328.235C145.778 328.069 114.967 317.879 89.4382 299.126L178.24 178.237L265.771 300.049Z"/>
</mask>
<g filter="url(#filter2_i)">
<path d="M265.771 300.049C240.047 318.534 209.131 328.4 177.455 328.235C145.778 328.069 114.967 317.879 89.4382 299.126L178.24 178.237L265.771 300.049Z" fill="url(#paint4_radial)"/>
</g>
<path d="M265.771 300.049C240.047 318.534 209.131 328.4 177.455 328.235C145.778 328.069 114.967 317.879 89.4382 299.126L178.24 178.237L265.771 300.049Z" stroke="url(#paint5_linear)" stroke-width="10" mask="url(#path-5-outside-3)"/>
<mask id="path-6-outside-4" maskUnits="userSpaceOnUse" x="-33.6165" y="84.375" width="220.019" height="221.73" fill="black">
<rect fill="white" x="-33.6165" y="84.375" width="220.019" height="221.73"/>
<path d="M89.4268 299.116C63.8975 280.362 44.9604 254.009 35.3296 223.831C25.6988 193.654 25.8687 161.202 35.815 131.128L178.229 178.226L89.4268 299.116Z"/>
</mask>
<g filter="url(#filter3_i)">
<path d="M89.4268 299.116C63.8975 280.362 44.9604 254.009 35.3296 223.831C25.6988 193.654 25.8687 161.202 35.815 131.128L178.229 178.226L89.4268 299.116Z" fill="url(#paint6_radial)"/>
</g>
<path d="M89.4268 299.116C63.8975 280.362 44.9604 254.009 35.3296 223.831C25.6988 193.654 25.8687 161.202 35.815 131.128L178.229 178.226L89.4268 299.116Z" stroke="url(#paint7_linear)" stroke-width="10" mask="url(#path-6-outside-4)"/>
<mask id="path-7-outside-5" maskUnits="userSpaceOnUse" x="29.5089" y="-11.8963" width="202.162" height="197.078" fill="black">
<rect fill="white" x="29.5089" y="-11.8963" width="202.162" height="197.078"/>
<path d="M35.826 131.138C45.7723 101.063 64.9844 74.9091 90.7086 56.4244C116.433 37.9396 147.349 28.0731 179.025 28.239L178.24 178.237L35.826 131.138Z"/>
</mask>
<g filter="url(#filter4_i)">
<path d="M35.826 131.138C45.7723 101.063 64.9844 74.9091 90.7086 56.4244C116.433 37.9396 147.349 28.0731 179.025 28.239L178.24 178.237L35.826 131.138Z" fill="url(#paint8_radial)"/>
</g>
<path d="M35.826 131.138C45.7723 101.063 64.9844 74.9091 90.7086 56.4244C116.433 37.9396 147.349 28.0731 179.025 28.239L178.24 178.237L35.826 131.138Z" stroke="url(#paint9_linear)" stroke-width="10" mask="url(#path-7-outside-5)"/>
<circle cx="178.24" cy="178.237" r="20.5" transform="rotate(180 178.24 178.237)" fill="black" stroke="url(#paint10_linear)" stroke-width="5"/>
<path d="M149.712 75.5541L152.402 79.2561L144.997 84.6355L126.144 58.6855L130.237 55.7113L146.401 77.9593L149.712 75.5541ZM120.158 97.3528L132.083 88.6888L126.936 81.6051C126.92 82.6316 126.59 83.7238 125.944 84.8816C125.275 86.0566 124.383 87.0493 123.268 87.8597C121.274 89.308 119.35 90.0533 117.495 90.0955C115.617 90.155 113.943 89.7218 112.472 88.7959C110.978 87.8873 109.705 86.7091 108.653 85.2615C107.378 83.5054 106.584 81.6892 106.272 79.8127C105.954 77.9773 106.186 76.1766 106.97 74.4107C107.73 72.6621 109.083 71.0808 111.029 69.667C113.616 67.7876 116.158 66.9197 118.655 67.0633C121.152 67.2068 123.322 68.2225 125.165 70.1105L121.214 72.9812C120.143 72.0555 118.915 71.588 117.53 71.5787C116.163 71.5932 114.803 72.0918 113.45 73.0745C111.765 74.2987 110.878 75.7227 110.789 77.3466C110.676 78.9878 111.232 80.6508 112.456 82.3357C113.697 84.0444 115.073 85.0392 116.582 85.3203C118.109 85.6251 119.703 85.1741 121.364 83.9671C122.527 83.1223 123.296 82.1101 123.672 80.9306C124.041 79.7921 124.042 78.5952 123.674 77.3398L127.518 74.5467L138.406 89.5329L122.744 100.912L120.158 97.3528ZM112.777 98.473C114.036 100.205 114.52 101.92 114.23 103.617C113.934 105.355 112.991 106.802 111.401 107.957C109.811 109.112 108.155 109.554 106.434 109.281C104.707 109.05 103.214 108.068 101.956 106.335C100.697 104.603 100.216 102.868 100.512 101.129C100.785 99.4086 101.716 97.9706 103.306 96.8154C104.896 95.6602 106.563 95.2103 108.308 95.4656C110.029 95.7381 111.518 96.7406 112.777 98.473ZM94.7612 119.339L90.964 84.245L94.9508 81.3484L98.7481 116.443L94.7612 119.339ZM109.616 105.501C111.111 104.415 111.109 102.839 109.609 100.775C108.092 98.6864 106.585 98.1854 105.09 99.2716C104.378 99.7888 104.014 100.435 103.996 101.209C103.972 102.024 104.348 102.966 105.124 104.033C106.624 106.098 108.121 106.587 109.616 105.501ZM87.7113 94.44C88.9699 96.1723 89.4543 97.8871 89.1645 99.5842C88.8682 101.322 87.9251 102.769 86.3351 103.924C84.7689 105.062 83.1253 105.495 81.4044 105.222C79.6771 104.991 78.1841 104.009 76.9254 102.276C75.6668 100.544 75.1856 98.8087 75.4819 97.0706C75.7545 95.3498 76.6739 93.9203 78.2401 92.7824C79.8301 91.6272 81.4974 91.1773 83.242 91.4326C84.9629 91.7051 86.4526 92.7076 87.7113 94.44ZM84.5862 101.442C86.0813 100.356 86.0788 98.7805 84.5787 96.7159C83.0787 94.6513 81.5812 94.1621 80.0861 95.2483C78.591 96.3345 78.5935 97.9099 80.0936 99.9746C81.5936 102.039 83.0911 102.528 84.5862 101.442Z" fill="white"/>
<path d="M70.7099 175.047L75.062 173.633L77.8901 182.337L47.384 192.249L45.8204 187.437L71.9744 178.939L70.7099 175.047ZM56.8562 199.331C60.0419 201.257 62.6233 202.747 64.6004 203.801C66.6145 204.874 68.5983 205.664 70.5517 206.17C72.5052 206.676 74.2909 206.667 75.909 206.141C77.5828 205.597 78.7626 204.767 79.4482 203.649C80.143 202.56 80.2138 201.165 79.6609 199.463C79.1261 197.817 78.1791 196.706 76.8198 196.13C75.4976 195.572 73.9486 195.551 72.1729 196.067L70.6773 191.463C73.8848 190.514 76.6201 190.674 78.8831 191.943C81.1831 193.231 82.7909 195.284 83.7064 198.102C84.6945 201.143 84.628 203.786 83.5071 206.032C82.3952 208.305 80.4444 209.895 77.6546 210.802C75.646 211.454 73.5394 211.568 71.3349 211.143C69.1673 210.737 67.1131 210.063 65.1723 209.121C63.2684 208.197 61.0004 206.96 58.3684 205.41L56.0827 204.07L60.3929 217.336L56.4175 218.627L49.8095 198.29L53.2827 197.162L56.8562 199.331ZM80.2571 214.682C82.2936 214.02 84.0741 214.089 85.5986 214.89C87.1601 215.708 88.2445 217.052 88.8518 218.922C89.4592 220.791 89.3673 222.502 88.5763 224.054C87.8223 225.625 86.427 226.742 84.3905 227.403C82.354 228.065 80.555 227.986 78.9935 227.168C77.4411 226.377 76.3612 225.047 75.7539 223.177C75.1466 221.308 75.2339 219.584 76.0158 218.003C76.8068 216.451 78.2206 215.344 80.2571 214.682ZM94.5351 238.264L59.9849 231.031L58.4621 226.344L93.0123 233.577L94.5351 238.264ZM85.9644 219.86C85.3934 218.102 83.8943 217.618 81.4672 218.406C79.0122 219.204 78.0702 220.482 78.6413 222.239C78.9132 223.076 79.4146 223.623 80.1455 223.879C80.9134 224.153 81.925 224.087 83.1804 223.679C85.6075 222.89 86.5355 221.617 85.9644 219.86ZM68.6757 237.275C70.7123 236.613 72.4928 236.682 74.0173 237.482C75.5788 238.301 76.6632 239.645 77.2705 241.514C77.8688 243.355 77.7724 245.052 76.9814 246.605C76.2274 248.176 74.8321 249.292 72.7956 249.954C70.759 250.616 68.96 250.537 67.3986 249.718C65.8461 248.927 64.7708 247.611 64.1726 245.77C63.5652 243.901 63.6525 242.176 64.4345 240.596C65.2255 239.043 66.6392 237.936 68.6757 237.275ZM74.3695 242.411C73.7984 240.653 72.2994 240.168 69.8723 240.957C67.4452 241.746 66.5171 243.019 67.0882 244.776C67.6593 246.534 69.1584 247.018 71.5854 246.23C74.0125 245.441 74.9406 244.168 74.3695 242.411Z" fill="white"/>
<path d="M154.622 290.811C151.572 289.285 150.046 286.88 150.046 283.595C150.046 282.011 150.442 280.559 151.234 279.239C152.026 277.919 153.214 276.877 154.798 276.115C156.382 275.323 158.318 274.927 160.606 274.927C162.865 274.927 164.786 275.323 166.37 276.115C167.984 276.877 169.186 277.919 169.978 279.239C170.77 280.559 171.166 282.011 171.166 283.595C171.166 285.237 170.741 286.689 169.89 287.951C169.069 289.183 167.969 290.136 166.59 290.811C168.262 291.427 169.582 292.439 170.55 293.847C171.518 295.225 172.002 296.853 172.002 298.731C172.002 300.637 171.518 302.324 170.55 303.791C169.582 305.257 168.233 306.387 166.502 307.179C164.772 307.971 162.806 308.367 160.606 308.367C158.406 308.367 156.441 307.971 154.71 307.179C153.009 306.387 151.674 305.257 150.706 303.791C149.738 302.324 149.254 300.637 149.254 298.731C149.254 296.824 149.738 295.181 150.706 293.803C151.674 292.424 152.98 291.427 154.622 290.811ZM166.37 284.211C166.37 282.568 165.857 281.307 164.83 280.427C163.804 279.547 162.396 279.107 160.606 279.107C158.846 279.107 157.453 279.547 156.426 280.427C155.4 281.307 154.886 282.583 154.886 284.255C154.886 285.721 155.414 286.924 156.47 287.863C157.556 288.772 158.934 289.227 160.606 289.227C162.278 289.227 163.657 288.757 164.742 287.819C165.828 286.88 166.37 285.677 166.37 284.211ZM160.606 293.011C158.67 293.011 157.086 293.495 155.854 294.463C154.652 295.401 154.05 296.765 154.05 298.555C154.05 300.227 154.637 301.591 155.81 302.647C156.984 303.673 158.582 304.187 160.606 304.187C162.601 304.187 164.17 303.659 165.314 302.603C166.488 301.547 167.074 300.197 167.074 298.555C167.074 296.795 166.473 295.431 165.27 294.463C164.097 293.495 162.542 293.011 160.606 293.011ZM176.477 283.243C176.477 281.101 177.093 279.429 178.325 278.227C179.586 276.995 181.2 276.379 183.165 276.379C185.13 276.379 186.729 276.995 187.961 278.227C189.222 279.429 189.853 281.101 189.853 283.243C189.853 285.384 189.222 287.071 187.961 288.303C186.729 289.535 185.13 290.151 183.165 290.151C181.2 290.151 179.586 289.535 178.325 288.303C177.093 287.071 176.477 285.384 176.477 283.243ZM203.317 276.951L185.761 307.575L180.833 307.575L198.389 276.951L203.317 276.951ZM183.165 279.415C181.317 279.415 180.393 280.691 180.393 283.243C180.393 285.824 181.317 287.115 183.165 287.115C184.045 287.115 184.72 286.807 185.189 286.191C185.688 285.545 185.937 284.563 185.937 283.243C185.937 280.691 185.013 279.415 183.165 279.415ZM194.385 301.239C194.385 299.097 195.001 297.425 196.233 296.223C197.494 294.991 199.108 294.375 201.073 294.375C203.009 294.375 204.593 294.991 205.825 296.223C207.086 297.425 207.717 299.097 207.717 301.239C207.717 303.38 207.086 305.067 205.825 306.299C204.593 307.531 203.009 308.147 201.073 308.147C199.108 308.147 197.494 307.531 196.233 306.299C195.001 305.067 194.385 303.38 194.385 301.239ZM201.029 297.411C199.181 297.411 198.257 298.687 198.257 301.239C198.257 303.791 199.181 305.067 201.029 305.067C202.877 305.067 203.801 303.791 203.801 301.239C203.801 298.687 202.877 297.411 201.029 297.411Z" fill="white"/>
<path d="M273.444 218.529L268.889 232.547L277.217 235.253C276.626 234.413 276.251 233.336 276.093 232.02C275.943 230.676 276.082 229.348 276.508 228.037C277.269 225.693 278.388 223.96 279.863 222.835C281.348 221.683 282.957 221.049 284.691 220.934C286.434 220.791 288.156 220.996 289.858 221.549C291.923 222.22 293.632 223.222 294.988 224.557C296.324 225.855 297.194 227.448 297.598 229.338C298.011 231.199 297.846 233.274 297.103 235.561C296.115 238.602 294.568 240.798 292.463 242.15C290.359 243.502 288.006 243.956 285.405 243.512L286.915 238.867C288.325 238.986 289.594 238.642 290.719 237.836C291.817 237.021 292.624 235.818 293.141 234.228C293.784 232.247 293.665 230.574 292.783 229.207C291.909 227.813 290.482 226.794 288.502 226.151C286.493 225.498 284.795 225.502 283.409 226.162C281.995 226.812 280.97 228.114 280.336 230.067C279.892 231.434 279.864 232.705 280.253 233.88C280.624 235.018 281.327 235.987 282.363 236.786L280.894 241.306L263.277 235.582L269.259 217.169L273.444 218.529ZM278.757 213.284C276.72 212.622 275.32 211.52 274.557 209.977C273.775 208.396 273.688 206.672 274.295 204.802C274.903 202.933 275.983 201.603 277.535 200.812C279.069 199.984 280.854 199.901 282.89 200.563C284.927 201.225 286.336 202.346 287.118 203.926C287.909 205.478 288.001 207.189 287.393 209.058C286.786 210.927 285.702 212.271 284.14 213.09C282.588 213.881 280.793 213.946 278.757 213.284ZM281.067 185.813L304.767 211.974L303.244 216.66L279.544 190.5L281.067 185.813ZM277.183 205.741C276.612 207.498 277.54 208.771 279.967 209.56C282.422 210.358 283.935 209.878 284.506 208.12C284.778 207.283 284.693 206.546 284.253 205.91C283.793 205.236 282.935 204.695 281.68 204.287C279.253 203.499 277.754 203.983 277.183 205.741ZM301.406 201.814C299.369 201.152 297.969 200.05 297.206 198.506C296.424 196.926 296.337 195.201 296.944 193.332C297.543 191.491 298.618 190.175 300.17 189.384C301.704 188.556 303.489 188.473 305.526 189.134C307.562 189.796 308.971 190.917 309.753 192.497C310.544 194.05 310.641 195.747 310.042 197.588C309.435 199.457 308.351 200.801 306.789 201.62C305.237 202.411 303.442 202.475 301.406 201.814ZM299.818 194.312C299.247 196.07 300.175 197.343 302.602 198.131C305.029 198.92 306.528 198.435 307.1 196.678C307.671 194.92 306.743 193.647 304.316 192.859C301.888 192.07 300.389 192.554 299.818 194.312Z" fill="white"/>
<path d="M262.92 110.444C261.174 112.547 259.082 113.656 256.643 113.769C254.18 113.865 251.738 113.034 249.318 111.275C247.657 110.068 246.436 108.728 245.657 107.256C244.878 105.783 244.55 104.313 244.675 102.844C244.799 101.375 245.327 100 246.258 98.7185C247.327 97.2471 248.632 96.2739 250.174 95.7987C251.716 95.3235 253.162 95.3045 254.512 95.7416L254.616 95.5992C253.526 94.1548 253.003 92.5786 253.048 90.8705C253.075 89.1861 253.726 87.4659 255.002 85.7098C256.02 84.3097 257.245 83.2966 258.679 82.6704C260.113 82.0443 261.691 81.8678 263.415 82.1409C265.121 82.4377 266.852 83.224 268.608 84.4999C271.171 86.362 272.809 88.5491 273.522 91.0613C274.194 93.5799 273.692 96.1163 272.018 98.6706L268.102 95.8257C268.921 94.499 269.185 93.1132 268.893 91.6684C268.584 90.2473 267.682 88.9937 266.186 87.9075C264.739 86.8557 263.339 86.4369 261.987 86.6511C260.618 86.889 259.476 87.6368 258.562 88.8945C257.355 90.5557 257.036 92.1184 257.604 93.5824C258.131 95.053 259.486 96.5814 261.669 98.1676L262.594 98.8401L260.163 102.186L259.202 101.488C257.263 100.115 255.571 99.375 254.126 99.2679C252.657 99.1435 251.44 99.7458 250.474 101.075C249.647 102.214 249.359 103.383 249.612 104.582C249.848 105.805 250.642 106.907 251.995 107.89C253.324 108.856 254.606 109.261 255.842 109.108C257.06 108.978 258.102 108.466 258.969 107.573L262.92 110.444ZM242.251 95.644C240.992 97.3763 239.511 98.3669 237.807 98.6158C236.063 98.8711 234.396 98.4211 232.806 97.2659C231.216 96.1108 230.284 94.6727 230.012 92.9519C229.698 91.2375 230.171 89.5141 231.429 87.7817C232.688 86.0494 234.19 85.0555 235.934 84.8002C237.655 84.5276 239.311 84.969 240.901 86.1242C242.49 87.2794 243.434 88.726 243.73 90.4641C244.002 92.185 243.509 93.9116 242.251 95.644ZM216.838 84.9581L249.042 70.502L253.029 73.3986L220.825 87.8547L216.838 84.9581ZM234.59 94.8098C236.085 95.896 237.583 95.4068 239.083 93.3422C240.6 91.2538 240.611 89.6666 239.116 88.5803C238.404 88.0631 237.677 87.9157 236.935 88.1382C236.153 88.3672 235.373 89.0156 234.597 90.0835C233.097 92.1481 233.095 93.7235 234.59 94.8098ZM238.341 70.5588C237.082 72.2912 235.601 73.2818 233.897 73.5306C232.153 73.7859 230.485 73.336 228.895 72.1808C227.329 71.0429 226.41 69.6135 226.137 67.8926C225.824 66.1782 226.296 64.4549 227.555 62.7225C228.814 60.9901 230.315 59.9963 232.06 59.7409C233.781 59.4684 235.424 59.9011 236.99 61.039C238.58 62.1942 239.524 63.6409 239.82 65.379C240.092 67.0998 239.599 68.8265 238.341 70.5588ZM230.716 69.7505C232.211 70.8367 233.708 70.3475 235.208 68.2829C236.708 66.2183 236.711 64.6429 235.216 63.5567C233.721 62.4704 232.223 62.9596 230.723 65.0242C229.223 67.0889 229.22 68.6643 230.716 69.7505Z" fill="white"/>
</g>
<defs>
<filter id="filter0_i" x="173.204" y="23.2134" width="154.805" height="162.686" filterUnits="userSpaceOnUse" color-interpolation-filters="sRGB">
<feFlood flood-opacity="0" result="BackgroundImageFix"/>
<feBlend mode="normal" in="SourceGraphic" in2="BackgroundImageFix" result="shape"/>
<feColorMatrix in="SourceAlpha" type="matrix" values="0 0 0 0 0 0 0 0 0 0 0 0 0 0 0 0 0 0 127 0" result="hardAlpha"/>
<feMorphology radius="10" operator="erode" in="SourceAlpha" result="effect1_innerShadow"/>
<feOffset/>
<feGaussianBlur stdDeviation="2"/>
<feComposite in2="hardAlpha" operator="arithmetic" k2="-1" k3="1"/>
<feColorMatrix type="matrix" values="0 0 0 0 0 0 0 0 0 0 0 0 0 0 0 0 0 0 0.25 0"/>
<feBlend mode="normal" in2="shape" result="effect1_innerShadow"/>
</filter>
<filter id="filter1_i" x="170.163" y="126.349" width="201.027" height="195.888" filterUnits="userSpaceOnUse" color-interpolation-filters="sRGB">
<feFlood flood-opacity="0" result="BackgroundImageFix"/>
<feBlend mode="normal" in="SourceGraphic" in2="BackgroundImageFix" result="shape"/>
<feColorMatrix in="SourceAlpha" type="matrix" values="0 0 0 0 0 0 0 0 0 0 0 0 0 0 0 0 0 0 127 0" result="hardAlpha"/>
<feMorphology radius="10" operator="erode" in="SourceAlpha" result="effect1_innerShadow"/>
<feOffset/>
<feGaussianBlur stdDeviation="2"/>
<feComposite in2="hardAlpha" operator="arithmetic" k2="-1" k3="1"/>
<feColorMatrix type="matrix" values="0 0 0 0 0 0 0 0 0 0 0 0 0 0 0 0 0 0 0.25 0"/>
<feBlend mode="normal" in2="shape" result="effect1_innerShadow"/>
</filter>
<filter id="filter2_i" x="53.2568" y="169.73" width="219.492" height="221.303" filterUnits="userSpaceOnUse" color-interpolation-filters="sRGB">
<feFlood flood-opacity="0" result="BackgroundImageFix"/>
<feBlend mode="normal" in="SourceGraphic" in2="BackgroundImageFix" result="shape"/>
<feColorMatrix in="SourceAlpha" type="matrix" values="0 0 0 0 0 0 0 0 0 0 0 0 0 0 0 0 0 0 127 0" result="hardAlpha"/>
<feMorphology radius="10" operator="erode" in="SourceAlpha" result="effect1_innerShadow"/>
<feOffset/>
<feGaussianBlur stdDeviation="2"/>
<feComposite in2="hardAlpha" operator="arithmetic" k2="-1" k3="1"/>
<feColorMatrix type="matrix" values="0 0 0 0 0 0 0 0 0 0 0 0 0 0 0 0 0 0 0.25 0"/>
<feBlend mode="normal" in2="shape" result="effect1_innerShadow"/>
</filter>
<filter id="filter3_i" x="-33.583" y="84.4946" width="219.916" height="221.611" filterUnits="userSpaceOnUse" color-interpolation-filters="sRGB">
<feFlood flood-opacity="0" result="BackgroundImageFix"/>
<feBlend mode="normal" in="SourceGraphic" in2="BackgroundImageFix" result="shape"/>
<feColorMatrix in="SourceAlpha" type="matrix" values="0 0 0 0 0 0 0 0 0 0 0 0 0 0 0 0 0 0 127 0" result="hardAlpha"/>
<feMorphology radius="10" operator="erode" in="SourceAlpha" result="effect1_innerShadow"/>
<feOffset/>
<feGaussianBlur stdDeviation="2"/>
<feComposite in2="hardAlpha" operator="arithmetic" k2="-1" k3="1"/>
<feColorMatrix type="matrix" values="0 0 0 0 0 0 0 0 0 0 0 0 0 0 0 0 0 0 0.25 0"/>
<feBlend mode="normal" in2="shape" result="effect1_innerShadow"/>
</filter>
<filter id="filter4_i" x="29.5088" y="-11.8574" width="202.037" height="197.002" filterUnits="userSpaceOnUse" color-interpolation-filters="sRGB">
<feFlood flood-opacity="0" result="BackgroundImageFix"/>
<feBlend mode="normal" in="SourceGraphic" in2="BackgroundImageFix" result="shape"/>
<feColorMatrix in="SourceAlpha" type="matrix" values="0 0 0 0 0 0 0 0 0 0 0 0 0 0 0 0 0 0 127 0" result="hardAlpha"/>
<feMorphology radius="10" operator="erode" in="SourceAlpha" result="effect1_innerShadow"/>
<feOffset/>
<feGaussianBlur stdDeviation="2"/>
<feComposite in2="hardAlpha" operator="arithmetic" k2="-1" k3="1"/>
<feColorMatrix type="matrix" values="0 0 0 0 0 0 0 0 0 0 0 0 0 0 0 0 0 0 0.25 0"/>
<feBlend mode="normal" in2="shape" result="effect1_innerShadow"/>
</filter>
<radialGradient id="paint0_radial" cx="0" cy="0" r="1" gradientUnits="userSpaceOnUse" gradientTransform="translate(178.171 177.767) rotate(-53.4) scale(220.5 326.112)">
<stop stop-color="#B60041"/>
<stop offset="1" stop-color="#FFB5CF"/>
</radialGradient>
<linearGradient id="paint1_linear" x1="263.5" y1="165" x2="178" y2="27" gradientUnits="userSpaceOnUse">
<stop stop-color="#FF5555"/>
<stop offset="0.177083" stop-color="#FFAD62"/>
<stop offset="0.348958" stop-color="#FCFF52"/>
<stop offset="0.520833" stop-color="#42FF55"/>
<stop offset="0.666667" stop-color="#408CFF"/>
<stop offset="0.817708" stop-color="#9351FF"/>
<stop offset="1" stop-color="#A027EA"/>
</linearGradient>
<radialGradient id="paint2_radial" cx="0" cy="0" r="1" gradientUnits="userSpaceOnUse" gradientTransform="translate(178.17 177.767) rotate(15.8648) scale(224.544)">
<stop stop-color="#6B00AD"/>
<stop offset="1" stop-color="#DBA2FF"/>
</radialGradient>
<linearGradient id="paint3_linear" x1="318" y1="130.5" x2="203" y2="253" gradientUnits="userSpaceOnUse">
<stop stop-color="#FF4E4E"/>
<stop offset="0.197917" stop-color="#FFB84E"/>
<stop offset="0.375" stop-color="#FBFF4E"/>
<stop offset="0.541667" stop-color="#51FF4E"/>
<stop offset="0.708333" stop-color="#4E6AFF"/>
<stop offset="0.854167" stop-color="#B14EFF"/>
<stop offset="1" stop-color="#A01FDC"/>
</linearGradient>
<radialGradient id="paint4_radial" cx="0" cy="0" r="1" gradientUnits="userSpaceOnUse" gradientTransform="translate(178.17 177.767) rotate(88.2188) scale(272.995)">
<stop stop-color="#FFB800"/>
<stop offset="1" stop-color="#FFF2C4"/>
</radialGradient>
<linearGradient id="paint5_linear" x1="271" y1="301" x2="137.5" y2="245.5" gradientUnits="userSpaceOnUse">
<stop stop-color="#FF5454"/>
<stop offset="0.177083" stop-color="#FFBB54"/>
<stop offset="0.34375" stop-color="#FCFF54"/>
<stop offset="0.510417" stop-color="#57FF54"/>
<stop offset="0.666667" stop-color="#54A3FF"/>
<stop offset="0.833333" stop-color="#A954FF"/>
<stop offset="1" stop-color="#AC11E2"/>
</linearGradient>
<radialGradient id="paint6_radial" cx="0" cy="0" r="1" gradientUnits="userSpaceOnUse" gradientTransform="translate(-4.52991 242.632) rotate(-19.546) scale(193.868)">
<stop stop-color="#FFB4B4"/>
<stop offset="1" stop-color="#FF0000"/>
</radialGradient>
<linearGradient id="paint7_linear" x1="34" y1="135.5" x2="128" y2="249" gradientUnits="userSpaceOnUse">
<stop stop-color="#FF5151"/>
<stop offset="0.166667" stop-color="#FFA451"/>
<stop offset="0.333333" stop-color="#F1FF51"/>
<stop offset="0.5" stop-color="#51FF6D"/>
<stop offset="0.65625" stop-color="#5196FF"/>
<stop offset="0.817708" stop-color="#B251FF"/>
<stop offset="1" stop-color="#A60CDC"/>
</linearGradient>
<radialGradient id="paint8_radial" cx="0" cy="0" r="1" gradientUnits="userSpaceOnUse" gradientTransform="translate(88.2586 48.089) rotate(55.2646) scale(157.799)">
<stop stop-color="#46BCFF"/>
<stop offset="1" stop-color="#005F94"/>
</radialGradient>
<linearGradient id="paint9_linear" x1="178" y1="178" x2="83.5" y2="14.5" gradientUnits="userSpaceOnUse">
<stop stop-color="#FF5A5A"/>
<stop offset="0.208333" stop-color="#FFBD5A"/>
<stop offset="0.369792" stop-color="#FCFF5A"/>
<stop offset="0.520833" stop-color="#5AFF6A"/>
<stop offset="0.661458" stop-color="#5AA6FF"/>
<stop offset="0.828125" stop-color="#A259FF"/>
<stop offset="1" stop-color="#AE13E4"/>
</linearGradient>
<linearGradient id="paint10_linear" x1="178.24" y1="155.237" x2="178.48" y2="219.975" gradientUnits="userSpaceOnUse">
<stop stop-color="#FF4A4A"/>
<stop offset="0.15625" stop-color="#FFB649"/>
<stop offset="0.3125" stop-color="#F0FF48"/>
<stop offset="0.463542" stop-color="#4AFF72"/>
<stop offset="0.640625" stop-color="#4A67FF"/>
<stop offset="0.807292" stop-color="#9A4BFF"/>
<stop offset="1" stop-color="#7C09D6"/>
</linearGradient>
</defs>
</svg>
